HIERARCHY
ROOT Hips
{
  OFFSET -125.086 92.215 135.881
  CHANNELS 6 Xposition Yposition Zposition Zrotation Xrotation Yrotation
  JOINT LeftUpLeg
  {
    OFFSET 8.64259 1.95398 -2.38835
    CHANNELS 3 Zrotation Xrotation Yrotation
    JOINT LeftLeg
    {
      OFFSET 43.7702 0 0
      CHANNELS 3 Zrotation Xrotation Yrotation
      JOINT LeftFoot
      {
        OFFSET 40.6238 0 0
        CHANNELS 3 Zrotation Xrotation Yrotation
        JOINT LeftToeBase
        {
          OFFSET 12.7242 0 0
          CHANNELS 3 Zrotation Xrotation Yrotation
          End Site
          {
            OFFSET 0 0 0
          }
        }
      }
    }
  }
  JOINT RightUpLeg
  {
    OFFSET -8.2249 1.95398 -2.59336
    CHANNELS 3 Zrotation Xrotation Yrotation
    JOINT RightLeg
    {
      OFFSET 43.5653 0 0
      CHANNELS 3 Zrotation Xrotation Yrotation
      JOINT RightFoot
      {
        OFFSET 40.6238 0 0
        CHANNELS 3 Zrotation Xrotation Yrotation
        JOINT RightToeBase
        {
          OFFSET 12.7242 0 0
          CHANNELS 3 Zrotation Xrotation Yrotation
          End Site
          {
            OFFSET 0 0 0
          }
        }
      }
    }
  }
  JOINT Spine
  {
    OFFSET 0.165834 0.87714 6.61349
    CHANNELS 3 Zrotation Xrotation Yrotation
    JOINT Spine1
    {
      OFFSET 7.38963 1.71661e-005 0
      CHANNELS 3 Zrotation Xrotation Yrotation
      JOINT Spine2
      {
        OFFSET 11.9445 1.14441e-005 0
        CHANNELS 3 Zrotation Xrotation Yrotation
        JOINT Spine3
        {
          OFFSET 14.7254 4.19617e-005 0
          CHANNELS 3 Zrotation Xrotation Yrotation
          JOINT Spine4
          {
            OFFSET 10.9679 0 0
            CHANNELS 3 Zrotation Xrotation Yrotation
            JOINT RightShoulder
            {
              OFFSET 2.46616 -1.6653 3.69651
              CHANNELS 3 Zrotation Xrotation Yrotation
              JOINT RightArm
              {
                OFFSET 13.0012 0 0
                CHANNELS 3 Zrotation Xrotation Yrotation
                JOINT RightForeArm
                {
                  OFFSET 28.7848 1.52588e-005 0
                  CHANNELS 3 Zrotation Xrotation Yrotation
                  JOINT RightHand
                  {
                    OFFSET 26.5688 1.52588e-005 0
                    CHANNELS 3 Zrotation Xrotation Yrotation
                    End Site
                    {
                      OFFSET 0 0 0
                    }
                  }
                }
              }
            }
            JOINT LeftShoulder
            {
              OFFSET 2.38034 -1.29275 -3.7523
              CHANNELS 3 Zrotation Xrotation Yrotation
              JOINT LeftArm
              {
                OFFSET 16.3182 6.10352e-005 0
                CHANNELS 3 Zrotation Xrotation Yrotation
                JOINT LeftForeArm
                {
                  OFFSET 27.0901 0 0
                  CHANNELS 3 Zrotation Xrotation Yrotation
                  JOINT LeftHand
                  {
                    OFFSET 24.5451 1.52588e-005 0
                    CHANNELS 3 Zrotation Xrotation Yrotation
                    End Site
                    {
                      OFFSET 0 0 0
                    }
                  }
                }
              }
            }
            JOINT Neck
            {
              OFFSET 5.0226 -0.0266342 0
              CHANNELS 3 Zrotation Xrotation Yrotation
              JOINT Head
              {
                OFFSET 6.69363 2.86102e-005 0
                CHANNELS 3 Zrotation Xrotation Yrotation
                End Site
                {
                  OFFSET 0 0 0
                }
              }
            }
          }
        }
      }
    }
  }
}
MOTION
Frames:	17
Frame Time:	0.0416667
-50.7968 80.7712 31.0681 -72.0192 -85.0025 -75.5606 -174.456 28.1198 116.337 -30.963 16.4165 8.45593 36.0965 -7.74857 -9.45788 66.8184 1.81053 22.9492 167.984 56.7143 66.784 -106.989 -22.561 -3.21654 52.1978 3.00745 15.9637 62.9166 -2.98563 11.4122 -0.788326 9.57519 -89.2753 7.72959 -1.25834 1.49663 -3.94165 -1.19126 1.55054 -26.4778 -1.64995 1.04927 -6.46517 -1.64994 1.04927 105.11 -28.9272 -75.9649 -8.20348 8.03647 18.2927 -3.66542 -4.73881 -41.0691 -5.63092 -0.0154248 -5.36634 -80 -20.9931 91.887 3.05168 -9.17342 26.3874 -7.57647 -6.93324 -25.9533 9.08429 -0.424315 -7.69642 -8.37321 7.8073 -27.3022 3.9383 12.5793 41.9877 
-44.1635 79.1513 31.5246 -73.7832 -83.7782 -78.212 -173.659 31.6414 112.664 -42.1257 13.3655 6.56703 52.225 -1.1628 2.80579 61.1594 0.429486 18.944 150.044 61.4925 87.3232 -107.921 -28.89 -2.43115 53.2466 2.99257 15.1216 64.2135 -2.33282 14.7851 -0.930457 9.98804 -89.2349 6.90578 -1.53071 1.57131 -4.76531 -1.46007 1.63715 -27.3038 -1.93215 1.03861 -7.29114 -1.93215 1.0386 106.074 -34.2204 -74.6135 -3.2969 5.59214 16.9034 -2.01901 -3.87142 -39.309 -3.54372 0.00252246 -6.2327 -78.0384 -29.8477 96.4612 -0.368102 -11.1949 20.528 -8.01052 -10.3014 -29.8223 9.43392 -0.470023 -8.03936 0.3139 6.99736 -33.8765 -1.70304 12.8965 48.5071 
-39.2432 77.6347 30.5765 -41.0289 -85.5871 -48.1817 -177.375 40.9282 109.398 -54.3933 14.0219 5.29355 52.6072 -0.589588 2.02263 63.4847 0.396734 17.7596 133.241 61.9126 106.996 -99.9371 -33.7444 0.522875 54.934 2.19255 11.7513 66.6953 -2.09078 16.003 -1.17701 10.384 -89.2589 6.11694 -2.03893 1.52094 -5.55342 -1.97002 1.6092 -28.0986 -2.40173 0.837652 -8.08599 -2.40173 0.837644 109.595 -42.1311 -69.3359 1.14183 6.83109 7.72768 -1.07177 -4.30041 -32.0787 -1.619 -0.0143657 -6.2775 -76.5797 -39.838 99.0435 -2.20926 -13.1605 3.33865 -5.41205 -8.7096 -24.8863 10.4769 -0.519352 -8.16033 9.29672 4.2357 -35.8649 -3.99 12.3465 48.6758 
-34.8413 76.7202 30.4881 29.3451 -83.3836 20.2543 -177.897 46.888 104.72 -58.1866 17.8075 3.74557 57.704 2.99031 4.13732 61.4889 -0.0621321 15.8115 129.937 60.5 113.036 -85.2958 -32.9249 5.87672 53.7227 2.11908 7.15588 68.5613 -2.19635 16.5128 -1.2951 10.3769 -89.5109 6.13026 -2.38112 1.03824 -5.539 -2.33311 1.14207 -28.0913 -2.58301 0.274197 -8.0787 -2.58301 0.274183 111.961 -48.5118 -66.6471 6.21119 8.48058 -2.26294 -2.88172 -13.987 -20.8065 4.59619 -0.10332 -6.73713 -78.44 -43.168 95.8726 -7.65336 -13.4849 -16.0483 -1.30599 -0.463853 -14.0406 7.8197 -0.493788 -8.91962 8.42742 2.52168 -28.3212 2.37221 10.8439 39.2931 
-29.8386 76.7989 30.9787 67.4528 -82.9869 54.2063 -171.758 45.1413 94.9529 -60.2705 23.7863 0.651328 60.5648 6.29888 12.8208 58.5448 -0.583539 13.4027 144.423 58.7503 101.139 -77.524 -30.9202 6.86503 55.7628 0.324818 2.04586 19.0785 -0.166467 9.20188 -1.10447 10.8401 -89.6264 5.19967 -2.05229 0.77325 -6.46995 -2.01626 0.862853 -29.018 -2.18976 0.120426 -9.00532 -2.18976 0.120431 112.502 -52.4853 -66.5778 9.71601 11.052 -12.1718 -3.62594 -29.9842 -12.0362 11.6902 -0.316362 -7.76767 -80.7309 -45.2472 92.2147 -14.2717 -11.0599 -31.9595 0.824403 10.1463 -9.69916 6.2969 -0.540866 -10.3059 8.74066 -0.324556 -15.3558 6.85309 5.62311 27.3023 
-25.8935 76.5813 31.2406 104.305 -78.5733 86.4846 -169.076 42.5581 86.813 -63.996 23.6768 -0.860358 61.1009 6.41398 11.1742 56.078 -1.01808 10.5552 157.804 54.8399 90.6182 -81.5085 -22.3637 2.9183 67.7382 -12.1374 -14.822 34.418 -1.50737 11.1121 -1.08169 11.3191 -89.8952 4.23679 -2.11871 0.219967 -7.43247 -2.10697 0.313036 -29.9812 -2.08682 -0.427254 -9.96852 -2.08682 -0.427263 110.272 -52.7368 -69.9628 12.678 10.399 -18.7868 -1.2286 -35.2944 -7.37521 9.30892 -0.197246 -6.89758 -82.4539 -45.1997 89.44 -19.8941 -5.61829 -41.3604 2.63576 19.0041 -14.251 5.4218 -0.534018 -10.8676 6.04013 -2.90981 -2.43406 11.4333 -0.375045 14.9465 
-21.9496 76.1081 31.3102 111.682 -74.7175 90.9957 -167.803 41.5802 80.3143 -67.2657 25.2344 -1.58762 61.5496 7.38539 13.8026 54.9627 -1.134 9.61925 170.935 56.5821 79.8233 -87.0746 -14.3485 -1.4614 65.3827 -8.79858 -8.90567 47.8994 -2.58999 4.30746 -0.890162 11.3946 -90.2382 4.0786 -1.87485 -0.456619 -7.5911 -1.89312 -0.373637 -30.1342 -1.65095 -0.999102 -10.1215 -1.65093 -0.999095 108.867 -51.4117 -71.9055 13.9443 8.37634 -24.7509 0.254061 -26.8698 -7.95589 2.62052 -0.0109133 -4.44818 -82.6622 -45.5269 89.1356 -21.7127 0.422845 -46.0436 5.19264 23.2735 -24.7414 5.12652 -0.514225 -10.8213 2.53098 -4.99749 4.12451 13.7596 -4.2125 8.83786 
-18.1838 76.0347 31.5761 109.22 -74.1968 91.6547 -168.502 42.9681 79.7054 -70.8123 24.5446 -0.72578 63.4624 9.6981 16.8808 54.9194 -1.1094 9.83296 176.982 58.2152 77.2762 -88.6226 -13.6285 -2.68171 55.7325 -1.68143 -3.14448 61.9468 -4.96142 1.33242 -0.415209 11.21 -90.9676 4.44201 -1.22364 -1.88408 -7.22959 -1.30537 -1.82843 -29.7556 -0.60097 -2.16459 -9.74291 -0.600963 -2.16461 108.568 -51.7001 -72.3963 14.8533 8.75264 -32.082 -0.127705 -16.0908 -11.0318 -2.05501 -0.0183288 -5.38792 -82.2227 -47.4177 90.0024 -21.3727 4.40022 -46.6111 7.83653 23.5487 -35.3365 6.53359 -0.570818 -10.535 0.486639 -5.72933 8.76273 13.4241 -6.21224 4.59903 
-15.1555 76.9629 32.0165 111.297 -73.8867 97.5752 -170.68 40.9728 81.537 -70.8854 24.7772 0.127021 65.7966 12.8464 21.342 53.4535 -1.24964 8.44622 175.389 54.2355 80.4549 -86.4439 -10.622 -2.45204 58.7921 -3.48084 -3.36362 62.0701 -5.10568 0.516336 -0.166313 11.1515 -91.5491 4.54791 -0.964219 -3.02672 -7.12609 -1.09643 -2.98141 -29.633 -0.0104978 -3.17643 -9.62036 -0.0104937 -3.17644 107.458 -51.2947 -74.0472 16.1041 6.70764 -36.8892 1.1697 -5.82453 -15.9446 -4.44879 0.0121803 -6.27757 -81.7515 -47.3182 90.7328 -23.5491 6.10996 -44.7401 10.7039 23.0151 -41.3683 8.79555 -0.656354 -10.1524 0.121375 -5.3113 6.22701 12.3093 -5.0549 7.55245 
-12.9898 78.4135 32.747 116.019 -76.4745 101.046 -169.163 37.3776 79.7616 -67.9734 23.6436 -1.09343 65.8859 13.1527 22.2351 53.4932 -1.36119 7.34724 178.476 50.0019 78.6298 -83.3415 -7.80368 -3.3789 64.6766 -7.5618 -5.69119 59.6781 -4.65003 0.97608 0.0542632 11.1294 -91.3211 4.60264 -0.431067 -2.58597 -7.07077 -0.544423 -2.56452 -29.5854 0.365781 -2.59601 -9.57281 0.365764 -2.59601 106.899 -50.4755 -74.8282 18.866 4.83009 -40.5009 0.899721 -5.14509 -19.2169 -2.65826 0.0108663 -7.25239 -81.2034 -47.3873 91.597 -25.6469 6.6965 -42.6454 14.4 24.974 -44.4062 9.96458 -0.788315 -10.8276 2.4328 -5.06043 3.63424 8.60938 -4.5366 9.47649 
-11.2071 80.0535 33.1693 111.189 -77.0982 97.0312 -169.934 36.8728 79.4532 -65.6678 21.9158 -1.26326 65.3892 12.1501 20.1333 53.3137 -1.37827 7.14122 178.631 48.483 77.9265 -79.9881 -6.30035 -3.40424 66.8005 -7.90811 -2.86888 56.7217 -4.27998 0.519716 0.119559 10.8932 -91.316 5.07708 -0.304049 -2.57607 -6.59634 -0.417091 -2.56022 -29.1115 0.48396 -2.54843 -9.09882 0.483965 -2.54843 106.71 -50.0766 -75.0856 21.6763 3.54442 -41.7279 -2.94367 -13.1256 -23.5 -0.645465 -0.0253862 -7.62124 -81.0485 -47.6429 91.8551 -26.9382 6.68378 -39.6464 17.3443 27.0222 -46.6426 11.241 -0.761874 -9.9931 3.7528 -4.91015 3.07932 6.72126 -4.50021 9.3293 
-9.75786 82.0887 33.7264 110.261 -78.1067 98.4472 -170.754 34.502 81.3477 -61.8332 21.7768 -1.28398 65.6034 12.3413 20.8079 52.2202 -1.44844 6.07304 179.058 46.6417 78.6804 -76.3135 -3.5472 -3.38536 63.3853 -3.8157 5.19405 57.0916 -4.38068 0.22523 0.198843 10.7643 -91.3792 5.33515 -0.174699 -2.70512 -6.33858 -0.293538 -2.69483 -28.852 0.64608 -2.63269 -8.83934 0.646088 -2.63268 106.842 -50.9022 -74.9554 22.4443 2.14958 -43.0512 -7.03552 -23.3971 -25.9235 -1.77472 -0.00728305 -6.94913 -80.8628 -47.9848 92.1654 -28.151 5.6018 -36.2861 19.4429 29.3428 -46.8924 10.9304 -0.612349 -8.83753 5.34882 -4.31841 1.50729 4.50094 -3.73913 10.787 
-8.40134 84.2522 34.2567 110.409 -76.7055 100.601 -172.918 31.7324 82.7488 -58.1141 21.0375 -0.616781 65.4452 11.6106 18.7922 50.6611 -1.4397 5.54567 176.54 42.3687 79.9438 -71.1485 -3.87536 -2.55602 63.5037 -3.67664 5.12764 55.5139 -4.23442 -0.48342 0.0191553 10.6662 -91.4592 5.52531 -0.569247 -2.85327 -6.14857 -0.694215 -2.82549 -28.6587 0.314206 -2.89245 -8.64605 0.314208 -2.89245 106.982 -51.6097 -74.8042 23.9002 1.60608 -42.5783 -12.5174 -33.3234 -29.0938 -6.28837 0.00427137 -5.73218 -80.8028 -48.3503 92.2795 -29.8901 4.16079 -33.6511 20.5509 32.5465 -44.3055 9.83036 -0.552599 -8.69058 7.04901 -3.92939 -0.465581 1.89023 -3.12533 12.8072 
-7.4699 86.3112 35.026 111.597 -76.7734 102.865 -173.508 28.3706 83.9188 -53.663 21.2034 -0.551585 65.2535 10.8119 17.2295 49.6174 -1.44848 4.85091 176.114 38.4532 80.5469 -66.251 -2.57629 -2.37971 63.5636 -3.06213 7.80782 53.3978 -4.14465 -2.53281 0.0108954 10.5882 -91.3431 5.68369 -0.539219 -2.62564 -5.98974 -0.654216 -2.5994 -28.5037 0.274518 -2.66632 -8.49103 0.274521 -2.66632 108.237 -53.2432 -73.0742 23.8481 1.08736 -40.8216 -15.8413 -37.6302 -32.3292 -7.46745 -0.143176 -3.1291 -80.784 -48.0435 92.2912 -31.7563 2.79715 -32.2053 22.5714 37.802 -41.6359 7.56865 -0.451356 -8.50641 8.54269 -3.76891 -2.48072 -0.29429 -2.75758 13.2919 
-6.80338 88.2651 35.8113 111.65 -77.3001 103.279 -173.759 25.1747 84.4077 -48.6015 20.6933 -0.768093 64.7934 9.83504 15.5861 47.9152 -1.4091 4.19915 176.464 35.3738 80.6447 -61.6002 -2.10734 -2.59378 62.2402 -2.10088 9.56037 52.7481 -4.13028 -3.40479 -0.0346395 10.4503 -91.1653 5.9621 -0.558751 -2.27522 -5.71066 -0.65832 -2.24845 -28.2298 0.15067 -2.33794 -8.2172 0.150674 -2.33794 108.701 -53.8061 -72.4478 24.0585 0.837473 -37.873 -14.2563 -35.1673 -31.5233 -7.21975 -0.0932237 -3.93687 -80.3322 -48.3919 93.0106 -33.0161 1.33176 -30.8844 23.5656 42.6966 -38.9282 4.96067 -0.347788 -8.40712 8.77658 -3.39022 -2.81836 -0.927333 -2.41133 12.147 
-6.25325 89.9955 36.5173 110.733 -76.9427 102.691 -174.697 22.1431 84.4923 -43.4485 20.0885 -0.587282 63.673 8.65025 14.7215 45.6523 -1.32828 3.36591 175.832 32.2064 80.7001 -56.8973 -2.08269 -2.35813 61.8904 -1.79109 9.92923 51.4304 -3.97279 -4.27973 -0.197637 10.2833 -90.9201 6.2977 -0.783979 -1.78458 -5.37417 -0.861755 -1.74837 -27.8998 -0.211506 -1.93764 -7.88711 -0.211516 -1.93766 109.631 -55.2022 -71.2525 23.6531 0.199033 -35.6485 -9.4492 -31.0656 -27.3154 -9.77936 -0.127094 -3.87702 -79.8037 -48.1462 93.8209 -32.9478 0.315514 -28.995 22.9725 46.1449 -36.3716 3.81865 -0.321012 -8.62403 6.98114 -3.30113 -6.42744 0.512204 -1.43099 14.0532 
-5.67719 91.6379 37.1776 109.491 -75.6569 102.943 -175.822 19.1517 85.3255 -38.7253 19.943 0.342486 62.9526 7.89517 14.316 43.2848 -1.2088 2.33446 174.464 28.4881 81.6226 -51.7606 -1.29126 -1.47615 61.1392 -1.29914 10.7717 49.3911 -3.60214 -4.57341 -0.327443 10.1078 -90.9033 6.64699 -1.03886 -1.73904 -5.02464 -1.11437 -1.69166 -27.5514 -0.468289 -1.97077 -7.53876 -0.468283 -1.97078 110.393 -55.759 -70.2229 24.2238 0.83123 -32.5961 -7.43118 -28.7825 -24.9448 -10.1702 -0.240267 -2.54376 -79.3864 -48.4801 94.4791 -32.6275 -0.671793 -27.7076 22.788 50.7921 -34.3841 2.06119 -0.262593 -8.81253 6.71436 -3.45421 -7.98231 -0.554442 -1.39984 14.7424 
